<svg width="1024" height="241" viewBox="0 0 1024 241" fill="none" xmlns="http://www.w3.org/2000/svg">
<g clip-path="url(#clip0_367_3)">
<path d="M729 3H691V36.7815H675V70.5629H691V131.587C691 165.151 716.333 173.179 729 172.997H754V138.126C731 138.126 729 137.036 729 130.498V70.5629H754V36.7815H729V3Z" fill="white"/>
<path d="M172 36H132V122.406C132 138.594 139.667 152.484 143.5 157.406C147.5 163.604 160.7 176 181.5 176C202.3 176 215.167 163.604 219 157.406V174.906H259V36H219V122.406C219 128.604 214.3 141 195.5 141C176.7 141 172 128.604 172 122.406V36Z" fill="white"/>
<path d="M123 0H0V34.8H42V174H81V34.8H123V0Z" fill="white"/>
<path d="M277 36.0859V174H316V93.0977C317 85.3151 323.3 69.75 340.5 69.75C357.7 69.75 363.333 85.3151 364 93.0977V174H403V95.2695C403 71.8133 396.5 59.4336 393.5 55.0898C393.5 55.0898 383 35 355 35C332.6 35 320.333 48.0312 317 54.5469V36.0859H277Z" fill="white"/>
<path d="M898 36.0859V174H937V93.0977C938 85.3151 944.3 69.75 961.5 69.75C978.7 69.75 984.333 85.3151 985 93.0977V174H1024V95.2695C1024 71.8133 1017.5 59.4336 1014.5 55.0898C1014.5 55.0898 1004 35 976 35C953.6 35 941.333 48.0312 938 54.5469V36.0859H898Z" fill="white"/>
<path fill-rule="evenodd" clip-rule="evenodd" d="M509 37.0768H547V182.113C546.833 201.742 534.1 241 484.5 241C434.9 241 419.833 206.104 418.5 188.656H457C458.667 194.472 466 206.104 482 206.104C498 206.104 506.333 193.018 508.5 186.475V154.851C504.167 161.757 490.3 175.57 469.5 175.57C448.7 175.57 433.5 161.757 428.5 154.851C423.667 149.216 414 131.405 414 105.233C414 79.061 423.667 60.886 428.5 55.07C433 48.1636 447.5 34.3506 469.5 34.3506C491.5 34.3506 505 50.3446 509 57.251V37.0768ZM481 139.583C496.464 139.583 509 124.204 509 105.233C509 86.2612 496.464 70.8818 481 70.8818C465.536 70.8818 453 86.2612 453 105.233C453 124.204 465.536 139.583 481 139.583Z" fill="white"/>
<path d="M668.155 80.9191H633.105C633.105 70.5071 623.591 65.6189 615.58 65.6189C597.053 65.0724 593.047 85.2907 615.58 89.6623C660.444 97.531 669.657 119.17 668.656 129.006C670.826 144.671 663.749 176 618.083 176C572.418 176 560.334 144.671 560 129.006H597.554C597.554 142.121 611.905 145.946 618.083 145.946C632.604 145.946 644.296 127.015 615.58 120.809C565.007 109.881 564.506 90.7552 564.506 80.9191C564.506 71.0831 564.506 36.1109 615.58 35.018C656.438 34.1437 667.654 65.2545 668.155 80.9191Z" fill="white"/>
<path fill-rule="evenodd" clip-rule="evenodd" d="M885.868 115.592C888.535 88.6934 879.768 34.8955 823.368 34.8955C766.968 34.8955 757.868 88.6934 760.368 115.592C761.701 135.767 776.168 176.115 823.368 176.115C870.567 176.115 882.867 133.04 882.867 128.678H841.867C840.701 133.04 835.167 141.764 822.367 141.764C806.367 141.764 797.867 129.224 797.867 115.592H885.868ZM823 67.6104C831 67.6104 847 72.6267 847 92.6919H798C799 84.3314 805.4 67.6104 823 67.6104Z" fill="white"/>
</g>
<defs>
<clipPath id="clip0_367_3">
<rect width="1024" height="241" fill="white"/>
</clipPath>
</defs>
</svg>
